# xmcd CD database file
#
# Track frame offsets:
#	150
#	21904
#	51908
#	96328
#	136924
#	168919
#	228777
#	275771
#
# Disc length: 4130 seconds
#
# Revision: 0
# Processed by: cddbd v1.5.2PL0 Copyright (c) Steve Scherf et al.
# Submitted via: CDex 1.51
#
DISCID=68102008
DTITLE=Kitaro - Celestial Scenery 10-Heart Beat (live)
DYEAR=2011
DGENRE=New Age
TTITLE0=Hajimari
TTITLE1=Sozo
TTITLE2=Mercury
TTITLE3=Chant From The Heart
TTITLE4=Spirit Of Taiko
TTITLE5=Kokoro
TTITLE6=The Light Of The Spirit
TTITLE7=Silk Road
EXTD=YEAR: 2011
EXTT0=
EXTT1=
EXTT2=
EXTT3=
EXTT4=
EXTT5=
EXTT6=
EXTT7=
PLAYORDER=
